<svg xmlns="http://www.w3.org/2000/svg" viewBox="0 0 64 64">
  <defs>
    <linearGradient id="bg" x1="10" y1="8" x2="54" y2="58" gradientUnits="userSpaceOnUse">
      <stop offset="0" stop-color="#f8fbfd"/>
      <stop offset="0.48" stop-color="#dfe8ef"/>
      <stop offset="1" stop-color="#f7f2ea"/>
    </linearGradient>
    <linearGradient id="pin" x1="22" y1="15" x2="43" y2="48" gradientUnits="userSpaceOnUse">
      <stop offset="0" stop-color="#f8fbfd"/>
      <stop offset="1" stop-color="#d7e1ea"/>
    </linearGradient>
  </defs>
  <rect width="64" height="64" fill="url(#bg)"/>
  <rect x=".75" y=".75" width="62.5" height="62.5" rx="15" fill="none" stroke="#111820" stroke-opacity=".1" stroke-width="1.5"/>
  <path d="M32 7.5c-10.2 0-18.4 8.1-18.4 18.1 0 12.2 13.8 25.2 17.3 28.3.7.6 1.6.6 2.2 0 3.5-3.1 17.3-16.1 17.3-28.3 0-10-8.2-18.1-18.4-18.1Z" fill="url(#pin)" stroke="#111820" stroke-opacity=".18" stroke-width="1.6"/>
  <circle cx="32" cy="26" r="9.7" fill="#ffffff" fill-opacity=".68" stroke="#111820" stroke-opacity=".13" stroke-width="1.4"/>
  <path d="M26.8 26h10.4M32 20.8v10.4" fill="none" stroke="#111820" stroke-opacity=".72" stroke-width="2.5" stroke-linecap="round"/>
  <circle cx="21" cy="55" r="4.1" fill="#b8793f"/>
  <circle cx="32" cy="57" r="4.1" fill="#b9c0c8"/>
  <circle cx="43" cy="55" r="4.1" fill="#d3a43f"/>
</svg>
